<svg xmlns="http://www.w3.org/2000/svg" xml:space="preserve" width="553" height="552.9" overflow="visible"><switch><g><path fill="#D90000" d="m464.9 88-3.8-3.8c-7.9-7.7-16.1-14.7-24.5-21.2-44.3-34-95.4-51.7-153.2-53H276.5v133.1h-.1.1V10c-60.7-.1-114.1 17.6-160.1 53.1-7.7 5.9-15.2 12.3-22.5 19.2C92 84.1 90 86 88.1 88c-17.3 17.2-31.6 35.6-43.1 55.1-19.5 33.1-30.8 69.5-34 109.4-.5 5.2-.7 10.5-.9 15.8-.1 2.7-.1 5.3-.1 8.1v.1c0 56.9 15.5 107.3 46.7 151.4 9.1 12.8 19.5 25.2 31.3 36.9 0 .1 0 .1.1.1 42.1 42.1 91.4 67.2 147.7 75.3 11 1.5 22.2 2.4 33.8 2.7h13.8c10.3-.3 20.5-1 30.4-2.3 57.8-7.5 108.1-32.7 151.1-75.7h.1c11.7-11.8 22.2-24.2 31.3-37.1 25.9-36.5 40.9-77.5 45.3-122.9.9-9.3 1.4-18.8 1.4-28.4v-.1c0-2.8-.1-5.4-.1-8.1-.6-20.3-3.2-39.9-7.7-58.6-5.9-23.5-15-45.7-27.2-66.5v-.1c-11.5-19.5-25.9-37.9-43.1-55.1"/><path d="M497.4 124.8v-.1c.7-1.5.9-2.9.5-4.4v.1c-.3-1.5-1.1-2.8-2.4-3.8-1.3-1.1-2.8-1.6-4.4-1.5H278.7c-.4-.1-.8-.1-1.2-.1-.5 0-.9 0-1.3.1H64c-1.6-.1-3.1.4-4.4 1.5-1.3 1-2.1 2.3-2.5 3.8-.3 1.4-.1 2.8.5 4.3.1 0 .1.1.2.1l166.8 322.3.1.1.1.1 48.1 90 .1.1c.7 1.4 1.9 2.4 3.5 3 .1.1.2.1.4.2 1.6.5 3.3.4 5-.2 1.5-.7 2.6-1.7 3.4-3.1.1-.1.1-.1.1-.2l40.7-81.6 171.3-330.7"/><path fill="#FFF" d="m306.9 200.3 12.9-78.5h-42.3v-.1.1h-46.6l14.7 78.5-146-9.8 50.8 98.1 95.2-15.9L230.9 444l48.2 90.2 45-89.9-17.2-171.6 97.8 15.9 50.8-98.1-148.6 9.8"/><path d="M468.5 77.4c-.2-.1-.3-.3-.4-.4-8.3-7.9-16.7-15.2-25.4-21.9C395 18.4 339.5 0 276.5 0 213.4 0 158 18.4 110.3 55.2c-8 6.1-15.7 12.7-23.3 19.9l.1-.1c-1.9 1.8-3.8 3.6-5.6 5.5-.2.1-.3.2-.4.4-18 17.8-32.8 36.9-44.7 57.2l12.9 7.6c11.3-19.3 25.4-37.3 42.3-54.2 1.9-1.9 3.8-3.7 5.8-5.6 7.1-6.8 14.5-13.1 22-18.8V67c45.2-34.7 97.5-52.1 157.1-52 59.5-.1 111.9 17.3 157.1 52 8.2 6.3 16.2 13.3 24 20.8 1.3 1.2 2.5 2.4 3.8 3.7 16.8 16.8 30.9 34.8 42.2 53.9 0 .1.1.2.1.3 12 20.4 20.9 42.2 26.6 65.2 5.1 20.8 7.7 42.6 7.7 65.5v.1c0 9.5-.5 18.8-1.3 27.9-4.3 44.6-19.1 84.7-44.4 120.6v-.1c-9 12.6-19.1 24.6-30.6 36.2-.1 0-.2.1-.3.3-42.2 42.1-91.6 66.9-148.2 74.3-9.8 1.3-19.7 1.9-29.8 2.2H269.6c-11.3-.3-22.3-1.2-33.1-2.7-55.1-7.8-103.3-32.4-144.6-73.6l-.3-.3c-11.6-11.6-21.9-23.7-30.8-36.2C30.2 381.8 15 332.3 15 276.5v-.1c0-8 .3-15.9 1-23.6 3.1-39 14.2-74.7 33.3-107.1l-12.9-7.6c-20.2 34.4-32 72.2-35.3 113.5C.4 259.7 0 268 0 276.4v.1c.1 59 16.2 111.4 48.6 157.2 8.9 12.6 19.2 24.8 30.7 36.5.8 1.5 2 2.6 3.4 3.5 43.4 42.7 94 68.2 151.7 76.4 11.4 1.6 23.1 2.5 35 2.8h14.2c10.8-.3 21.3-1 31.5-2.4 59.7-7.7 111.9-33.7 156.4-78l.2-.2c.1-.1.2-.2.4-.3 12.1-12.2 23-25 32.4-38.4 26.9-38 42.6-80.6 47.1-127.7.9-9.7 1.4-19.4 1.4-29.4v-.1c0-24.2-2.8-47.2-8.1-69.1-6-24.2-15.3-47.1-27.9-68.6-.1-.1-.1-.2-.2-.3-.1-.2-.1-.3-.2-.4-11.9-20.2-26.8-39.2-44.6-57-1.2-1.3-2.4-2.4-3.5-3.6"/><path fill="#FDCC00" d="M255 207.8c-1.3-1.4-2.8-2.5-4.2-3.5l-1.8-1v65.3h15l-.5-4.4h-10v-13.6h2.5v-4.5h-2.5v-33.2l.7.9c.5.7 1 1.5 1.5 2.4 1.6 2.7 2.6 5.3 3.1 7.8.5 3.7 1.1 9.2 2 16.3-.6.3-1.3.7-2.1 1.4-1.4 1.2-2.4 2.7-2.7 4.4v4.5c.5 2.5 2 4.4 4.4 5.6.8.5 1.6.8 2.5 1 .6.2 1.2.3 1.6.3-.7 2-1 4.2-1 6.7l.5 4.4.4 1.5c.3 1.3.6 2.6 1.2 3.9 1.8 4 4.3 7.2 7.7 9.6l1.2 1.2c.9.9 1.4 1.5 1.4 1.8.1-.3.5-.9 1.4-1.8l1.3-1.2-2.6-3c-3.3-3.4-5.5-6.4-6.3-8.8-.2-.8-.4-1.6-.6-2.3l-.1-.9h13.9l.7-4.5h-15.4c0-2.1.3-4 .7-5.5 1.9.3 3.3 1.3 4.1 3 .4.9.6 1.7.7 2.5h4.5c0-.8.2-1.6.7-2.5.8-1.7 2.1-2.7 4-3 .5 1.5.7 3.4.7 5.5l-.7 4.5-.1.9c-.2.7-.4 1.5-.7 2.3-.8 2.4-2.9 5.4-6.1 8.8l2.6 3c3.4-2.4 5.9-5.6 7.6-9.6.6-1.3 1-2.6 1.3-3.9l.3-1.5.5-4.4c0-2.5-.3-4.7-.9-6.7.3 0 .9-.1 1.5-.3.9-.2 1.8-.5 2.6-1 .5-.2 1-.5 1.4-.8 1.6-1.2 2.5-2.8 3-4.8h2.4v-4.5h-2.4c-.4-1.7-1.4-3.2-2.8-4.4l-.2-.2c-.4-.3-.8-.6-1.2-.8l-.7-.4c.8-6.5 1.5-11.6 1.9-15.2.1-.4.1-.7.1-1.1.5-2.5 1.5-5.1 3.1-7.8.8-1.3 1.4-2.3 2.1-3.2.1 0 .1-.1.1-.1V264.2h-10l-.5 4.4h15.1v-65.3c-.4.2-1 .5-1.8 1-1.5 1-2.9 2.1-4.2 3.5-4.4 4.2-7.2 9.5-8.5 15.8l-2.3 20.4 1.1-.1c.7 0 1.6.3 2.5.9 1.3.8 2 2 2 3.5s-.6 2.7-1.7 3.6c-1 .6-1.9 1-2.8 1-.7-.1-1.1-.1-1.3-.2l-.3-.1-4.5 1.6c-.8.5-2.6 1.6-5.2 3.4-2.6-1.8-4.4-2.9-5.1-3.4 1.2-2.1 2.5-4.7 3.7-7.9.4-1.1.7-2.1 1-3.1l.4-1.2.4 1.2c.3 1 .7 2 1 3.1 1.2 3.2 2.5 5.8 3.8 7.9l4.5-1.6c-1.2-1.6-2.3-3.8-3.5-6.7-2.3-5.6-3.6-11.5-3.5-17.6 0-3.5.1-7.8.3-13 .2-5.2.3-8.4.3-9.6 0-1.2-.2-2.3-.4-3.5-.5-2.1-1.5-4-2.9-5.5-1.4 1.5-2.3 3.4-2.9 5.5-.2 1.2-.4 2.3-.4 3.5 0 1.2.1 4.4.3 9.6.2 5.2.3 9.5.4 13-.1 6.1-1.3 12-3.5 17.6-1.2 2.9-2.4 5.1-3.5 6.7-.1.2-.6.2-1.6.3-1 0-1.9-.4-2.8-1-1.1-.9-1.7-2.1-1.7-3.6s.6-2.7 2-3.5c.9-.6 1.7-.9 2.5-.9.4 0 .8 0 1.1.1l-2.4-20.4c-1.3-6.3-4.1-11.6-8.4-15.8"/><path fill="none" stroke="#A68C4C" stroke-linecap="round" stroke-linejoin="round" d="M293 224c.5-2.5 1.5-5.1 3.1-7.8.8-1.3 1.4-2.3 2.1-3.2.1 0 .1-.1.1-.1v33.2h-2.4c-.4-1.7-1.4-3.2-2.8-4.4l-.2-.2c-.4-.3-.8-.6-1.2-.8l-.7-.4c.8-6.5 1.5-11.6 1.9-15.2.1-.4.1-.7.1-1.1M254.2 213.8l-.7-.9v33.2h2.5c.3-1.7 1.3-3.2 2.7-4.4.8-.7 1.5-1.1 2.1-1.4-.9-7.1-1.5-12.6-2-16.3-.5-2.5-1.5-5.1-3.1-7.8-.5-.9-1-1.7-1.5-2.4M253.5 250.6h2.5c.5 2.5 2 4.4 4.4 5.6.8.5 1.6.8 2.5 1 .6.2 1.2.3 1.6.3-.7 2-1 4.2-1 6.7h-10v-13.6M275.9 242l.4 1.2c.3 1 .7 2 1 3.1 1.2 3.2 2.5 5.8 3.8 7.9-.8.5-2.6 1.6-5.2 3.4-2.6-1.8-4.4-2.9-5.1-3.4 1.2-2.1 2.5-4.7 3.7-7.9.4-1.1.7-2.1 1-3.1l.4-1.2"/><path fill="none" stroke="#A68C4C" stroke-linecap="round" stroke-linejoin="round" d="M255 207.8c4.3 4.2 7.1 9.5 8.4 15.8l2.4 20.4c-.3-.1-.7-.1-1.1-.1-.8 0-1.6.3-2.5.9-1.4.8-2 2-2 3.5s.6 2.7 1.7 3.6c.9.6 1.8 1 2.8 1 1-.1 1.5-.1 1.6-.3 1.1-1.6 2.3-3.8 3.5-6.7 2.2-5.6 3.4-11.5 3.5-17.6-.1-3.5-.2-7.8-.4-13s-.3-8.4-.3-9.6c0-1.2.2-2.3.4-3.5.6-2.1 1.5-4 2.9-5.5 1.4 1.5 2.4 3.4 2.9 5.5.2 1.2.4 2.3.4 3.5 0 1.2-.1 4.4-.3 9.6-.2 5.2-.3 9.5-.3 13-.1 6.1 1.2 12 3.5 17.6 1.2 2.9 2.3 5.1 3.5 6.7l.3.1c.2.1.6.1 1.3.2.9 0 1.8-.4 2.8-1 1.1-.9 1.7-2.1 1.7-3.6s-.7-2.7-2-3.5c-.9-.6-1.8-.9-2.5-.9l-1.1.1 2.3-20.4c1.3-6.3 4.1-11.6 8.5-15.8 1.3-1.4 2.7-2.5 4.2-3.5.8-.5 1.4-.8 1.8-1v65.3h-15.1l-.3 1.5c-.3 1.3-.7 2.6-1.3 3.9-1.7 4-4.2 7.2-7.6 9.6l-1.3 1.2c-.9.9-1.3 1.5-1.4 1.8 0-.3-.5-.9-1.4-1.8l-1.2-1.2c-3.4-2.4-5.9-5.6-7.7-9.6-.6-1.3-.9-2.6-1.2-3.9l-.4-1.5h-15v-65.3l1.8 1c1.4 1 2.9 2.1 4.2 3.5"/><path fill="none" stroke="#A68C4C" stroke-linecap="round" stroke-linejoin="round" d="M298.3 250.6h-2.4c-.5 2-1.4 3.6-3 4.8-.4.3-.9.6-1.4.8-.8.5-1.7.8-2.6 1-.6.2-1.2.3-1.5.3.6 2 .9 4.2.9 6.7h10v-13.6M282.9 258.6c-1.9.3-3.2 1.3-4 3-.5.9-.7 1.7-.7 2.5h5.4c0-2.1-.2-4-.7-5.5M282.8 269.5c-.2.7-.4 1.5-.7 2.3-.8 2.4-2.9 5.4-6.1 8.8-3.3-3.4-5.5-6.4-6.3-8.8-.2-.8-.4-1.6-.6-2.3l-.1-.9h13.9l-.1.9M268.9 258.6c1.9.3 3.3 1.3 4.1 3 .4.9.6 1.7.7 2.5h-5.5c0-2.1.3-4 .7-5.5"/><path d="M253.8 39.7c-.2.1-.4.3-.6.6-6.4 6.2-9.6 14.1-9.6 23.5 0 4.6.7 8.9 2.2 12.8 1.2 3.3 2.9 6.3 5.2 9 6.2 7.8 15 11.6 26.5 11.6 11.4 0 20.2-4 26.5-12.2 4.7-6.1 7.1-13.2 7.1-21.2 0-9.5-3.2-17.3-9.5-23.6-6.3-6.3-14.6-9.2-24.7-8.9l.6 3c3.1 0 5.9.9 8.4 2.6 2.4 1.7 4.4 4.7 5.9 8.9 1.6 4.1 2.4 10.4 2.4 18.8 0 7.1-.8 12.8-2.3 17.2-1.6 4.4-3.7 7.6-6.5 9.6-2.1 1.5-4.8 2.3-8 2.3-4.8 0-8.5-1.8-11.2-5.4-3.8-5.2-5.7-13.2-5.7-24.1 0-9.1 1.2-16.1 3.7-21 3-5.9 7.4-8.9 13.3-8.9l-.6-3c-9.1-.3-16.8 2.5-23.1 8.4"/><path d="M280.9 26.9h-7v13.3h7V26.9M279.4 88.1h-7v13.3h7V88.1M86.5 341.6c-.6-1.3-1-2.3-1-2.9 0-1.8 1.9-2.7 5.5-2.7h1.3v-1.7H60.6v1.7c2.7.2 4.8.8 6.2 1.9 1.4 1 3.101 3.3 5 6.7l22.8 41.3-.9 1.9c-2 4.2-4.1 6.3-6.3 6.3-1.9 0-3-1.4-3.3-4.1-.4-2.2-.9-3.8-1.7-4.7-.8-.8-2-1.3-3.7-1.3-1.8 0-3.3.6-4.5 1.8-1.2 1.2-1.9 2.7-1.9 4.6 0 2.2.9 4.3 2.7 6.2 1.7 1.8 4.2 2.7 7.6 2.7 3.2 0 5.9-.7 8.2-2.1 2.2-1.5 4.9-5.2 8-11.3l19.8-38.8c2.2-4.4 4-7.3 5.3-8.7 1.5-1.4 3.3-2.2 5.4-2.4v-1.7h-21.2v1.7c4 .1 6.5.5 7.4 1.2 1 .7 1.5 1.6 1.5 2.6 0 1.5-.9 3.8-2.5 7l-12.1 23.7-15.9-28.9M459 333.1v1.7h2.1c1.8 0 3.2.3 4.3.9 1 .6 1.7 1.3 2.1 2.1.3.9.5 2.9.5 6.1v18h-22.5v-18c0-3.1.2-5.1.5-5.9.5-1 1.1-1.8 2-2.2 1.1-.7 2.6-1 4.4-1h2.1v-1.7h-33.2v1.7h2.1c1.8 0 3.2.3 4.3.9 1 .6 1.7 1.3 2 2.1.4.9.5 2.9.5 6.1v41.9c0 3.1-.1 5.1-.5 5.9-.4 1-1 1.8-1.8 2.2-1.2.7-2.6 1-4.5 1h-2.1v1.7h33.2v-1.7h-2.1c-1.8 0-3.2-.3-4.2-.9-1.1-.6-1.8-1.3-2.1-2.2-.4-.8-.6-2.8-.6-6v-19.7H468v19.7c0 3.1-.2 5.1-.5 5.9-.5 1-1.1 1.8-2 2.2-1 .7-2.5 1-4.4 1H459v1.7h33.2v-1.7h-2c-1.8 0-3.3-.3-4.3-.9-1.1-.6-1.8-1.3-2.1-2.2-.4-.8-.5-2.8-.5-6v-41.9c0-3.1.1-5.1.5-5.9.4-1 1.1-1.8 1.9-2.2 1.1-.7 2.6-1 4.5-1h2v-1.7H459"/></g></switch></svg>